<svg xmlns="http://www.w3.org/2000/svg" viewBox="0 0 512 512">
  <rect width="512" height="512" rx="115" fill="#0F6E56"/>
  <!-- Body -->
  <ellipse cx="256" cy="300" rx="140" ry="120" fill="#F9D4D4"/>
  <!-- Head -->
  <ellipse cx="256" cy="190" rx="100" ry="95" fill="#F9D4D4"/>
  <!-- Ears -->
  <ellipse cx="168" cy="130" rx="35" ry="42" fill="#F9D4D4"/>
  <ellipse cx="172" cy="132" rx="20" ry="26" fill="#F0A0A0"/>
  <ellipse cx="344" cy="130" rx="35" ry="42" fill="#F9D4D4"/>
  <ellipse cx="340" cy="132" rx="20" ry="26" fill="#F0A0A0"/>
  <!-- Snout -->
  <ellipse cx="256" cy="220" rx="48" ry="36" fill="#F0A0A0"/>
  <!-- Nostrils -->
  <ellipse cx="241" cy="222" rx="10" ry="12" fill="#C06070"/>
  <ellipse cx="271" cy="222" rx="10" ry="12" fill="#C06070"/>
  <!-- Eyes -->
  <circle cx="222" cy="175" r="14" fill="#1A1A18"/>
  <circle cx="290" cy="175" r="14" fill="#1A1A18"/>
  <circle cx="226" cy="171" r="5" fill="white"/>
  <circle cx="294" cy="171" r="5" fill="white"/>
  <!-- Legs -->
  <rect x="150" y="390" width="52" height="55" rx="20" fill="#F0A0A0"/>
  <rect x="220" y="395" width="52" height="50" rx="20" fill="#F0A0A0"/>
  <rect x="290" y="395" width="52" height="50" rx="20" fill="#F0A0A0"/>
  <rect x="360" y="390" width="52" height="55" rx="20" fill="#F0A0A0"/>
  <!-- Tail -->
  <path d="M396 280 Q430 260 420 230 Q410 200 390 210" fill="none" stroke="#F0A0A0" stroke-width="12" stroke-linecap="round"/>
</svg>
